<?xml version="1.0" encoding="utf-8" standalone="no"?>
<!DOCTYPE svg PUBLIC "-//W3C//DTD SVG 1.1//EN"
  "http://www.w3.org/Graphics/SVG/1.1/DTD/svg11.dtd">
<svg xmlns:xlink="http://www.w3.org/1999/xlink" width="288pt" height="288pt" viewBox="0 0 288 288" xmlns="http://www.w3.org/2000/svg" version="1.1">
 <metadata>
  <rdf:RDF xmlns:dc="http://purl.org/dc/elements/1.1/" xmlns:cc="http://creativecommons.org/ns#" xmlns:rdf="http://www.w3.org/1999/02/22-rdf-syntax-ns#">
   <cc:Work>
    <dc:type rdf:resource="http://purl.org/dc/dcmitype/StillImage"/>
    <dc:date>2026-07-09T02:23:10.428515</dc:date>
    <dc:format>image/svg+xml</dc:format>
    <dc:creator>
     <cc:Agent>
      <dc:title>Matplotlib v3.9.0, https://matplotlib.org/</dc:title>
     </cc:Agent>
    </dc:creator>
   </cc:Work>
  </rdf:RDF>
 </metadata>
 <defs>
  <style type="text/css">*{stroke-linejoin: round; stroke-linecap: butt}</style>
 </defs>
 <g id="figure_1">
  <g id="patch_1">
   <path d="M 0 288 
L 288 288 
L 288 0 
L 0 0 
L 0 288 
z
" style="fill: none"/>
  </g>
  <g id="axes_1">
   <g id="patch_2">
    <path d="M 144 255 
C 173.437544 255 201.673366 243.30434 222.488853 222.488853 
C 243.30434 201.673366 255 173.437544 255 144 
C 255 114.562456 243.30434 86.326634 222.488853 65.511147 
C 201.673366 44.69566 173.437544 33 144 33 
C 114.562456 33 86.326634 44.69566 65.511147 65.511147 
C 44.69566 86.326634 33 114.562456 33 144 
C 33 173.437544 44.69566 201.673366 65.511147 222.488853 
C 86.326634 243.30434 114.562456 255 144 255 
L 144 255 
z
" clip-path="url(#pa327d6a9e4)" style="fill: none; stroke: #000000; stroke-width: 2; stroke-linejoin: miter"/>
   </g>
   <g id="PolyCollection_1">
    <defs>
     <path id="m7123753bfe" d="M 255 -144 
L 255 -144 
L 254.986028 -144.013972 
L 254.944116 -144.055884 
L 254.874275 -144.125725 
L 254.776521 -144.223479 
L 254.65088 -144.34912 
L 254.497383 -144.502617 
L 254.31607 -144.68393 
L 254.106984 -144.893016 
L 253.87018 -145.12982 
L 253.605717 -145.394283 
L 253.313661 -145.686339 
L 252.994085 -146.005915 
L 252.647072 -146.352928 
L 252.272706 -146.727294 
L 251.871084 -147.128916 
L 251.442306 -147.557694 
L 250.98648 -148.01352 
L 250.50372 -148.49628 
L 249.994149 -149.005851 
L 249.457894 -149.542106 
L 248.895091 -150.104909 
L 248.305881 -150.694119 
L 247.690412 -151.309588 
L 247.048841 -151.951159 
L 246.381327 -152.618673 
L 245.688039 -153.311961 
L 244.969151 -154.030849 
L 244.224846 -154.775154 
L 243.455309 -155.544691 
L 242.660735 -156.339265 
L 241.841323 -157.158677 
L 240.997281 -158.002719 
L 240.12882 -158.87118 
L 239.236159 -159.763841 
L 238.319523 -160.680477 
L 237.379142 -161.620858 
L 236.415254 -162.584746 
L 235.428101 -163.571899 
L 234.417931 -164.582069 
L 233.384999 -165.615001 
L 232.329564 -166.670436 
L 231.251894 -167.748106 
L 230.152258 -168.847742 
L 229.030933 -169.969067 
L 227.888203 -171.111797 
L 226.724354 -172.275646 
L 225.53968 -173.46032 
L 224.334478 -174.665522 
L 223.109053 -175.890947 
L 221.863713 -177.136287 
L 220.59877 -178.40123 
L 219.314545 -179.685455 
L 218.011359 -180.988641 
L 216.689541 -182.310459 
L 215.349425 -183.650575 
L 213.991346 -185.008654 
L 212.615647 -186.384353 
L 211.222675 -187.777325 
L 209.81278 -189.18722 
L 208.386317 -190.613683 
L 206.943645 -192.056355 
L 205.485127 -193.514873 
L 204.011131 -194.988869 
L 202.522027 -196.477973 
L 201.01819 -197.98181 
L 199.5 -199.5 
L 197.967838 -201.032162 
L 196.422089 -202.577911 
L 194.863144 -204.136856 
L 193.291394 -205.708606 
L 191.707235 -207.292765 
L 190.111066 -208.888934 
L 188.503289 -210.496711 
L 186.884309 -212.115691 
L 185.254533 -213.745467 
L 183.614371 -215.385629 
L 181.964236 -217.035764 
L 180.304544 -218.695456 
L 178.635712 -220.364288 
L 176.958162 -222.041838 
L 175.272314 -223.727686 
L 173.578593 -225.421407 
L 171.877427 -227.122573 
L 170.169242 -228.830758 
L 168.454469 -230.545531 
L 166.73354 -232.26646 
L 165.006888 -233.993112 
L 163.274948 -235.725052 
L 161.538155 -237.461845 
L 159.796947 -239.203053 
L 158.051762 -240.948238 
L 156.30304 -242.69696 
L 154.551221 -244.448779 
L 152.796745 -246.203255 
L 151.040055 -247.959945 
L 149.281593 -249.718407 
L 147.521801 -251.478199 
L 145.761122 -253.238878 
L 144 -255 
L 144 -255 
L 144 -255 
L 145.761122 -254.986028 
L 147.521801 -254.944116 
L 149.281593 -254.874275 
L 151.040055 -254.776521 
L 152.796745 -254.65088 
L 154.551221 -254.497383 
L 156.30304 -254.31607 
L 158.051762 -254.106984 
L 159.796947 -253.87018 
L 161.538155 -253.605717 
L 163.274948 -253.313661 
L 165.006888 -252.994085 
L 166.73354 -252.647072 
L 168.454469 -252.272706 
L 170.169242 -251.871084 
L 171.877427 -251.442306 
L 173.578593 -250.98648 
L 175.272314 -250.50372 
L 176.958162 -249.994149 
L 178.635712 -249.457894 
L 180.304544 -248.895091 
L 181.964236 -248.305881 
L 183.614371 -247.690412 
L 185.254533 -247.048841 
L 186.884309 -246.381327 
L 188.503289 -245.688039 
L 190.111066 -244.969151 
L 191.707235 -244.224846 
L 193.291394 -243.455309 
L 194.863144 -242.660735 
L 196.422089 -241.841323 
L 197.967838 -240.997281 
L 199.5 -240.12882 
L 201.01819 -239.236159 
L 202.522027 -238.319523 
L 204.011131 -237.379142 
L 205.485127 -236.415254 
L 206.943645 -235.428101 
L 208.386317 -234.417931 
L 209.81278 -233.384999 
L 211.222675 -232.329564 
L 212.615647 -231.251894 
L 213.991346 -230.152258 
L 215.349425 -229.030933 
L 216.689541 -227.888203 
L 218.011359 -226.724354 
L 219.314545 -225.53968 
L 220.59877 -224.334478 
L 221.863713 -223.109053 
L 223.109053 -221.863713 
L 224.334478 -220.59877 
L 225.53968 -219.314545 
L 226.724354 -218.011359 
L 227.888203 -216.689541 
L 229.030933 -215.349425 
L 230.152258 -213.991346 
L 231.251894 -212.615647 
L 232.329564 -211.222675 
L 233.384999 -209.81278 
L 234.417931 -208.386317 
L 235.428101 -206.943645 
L 236.415254 -205.485127 
L 237.379142 -204.011131 
L 238.319523 -202.522027 
L 239.236159 -201.01819 
L 240.12882 -199.5 
L 240.997281 -197.967838 
L 241.841323 -196.422089 
L 242.660735 -194.863144 
L 243.455309 -193.291394 
L 244.224846 -191.707235 
L 244.969151 -190.111066 
L 245.688039 -188.503289 
L 246.381327 -186.884309 
L 247.048841 -185.254533 
L 247.690412 -183.614371 
L 248.305881 -181.964236 
L 248.895091 -180.304544 
L 249.457894 -178.635712 
L 249.994149 -176.958162 
L 250.50372 -175.272314 
L 250.98648 -173.578593 
L 251.442306 -171.877427 
L 251.871084 -170.169242 
L 252.272706 -168.454469 
L 252.647072 -166.73354 
L 252.994085 -165.006888 
L 253.313661 -163.274948 
L 253.605717 -161.538155 
L 253.87018 -159.796947 
L 254.106984 -158.051762 
L 254.31607 -156.30304 
L 254.497383 -154.551221 
L 254.65088 -152.796745 
L 254.776521 -151.040055 
L 254.874275 -149.281593 
L 254.944116 -147.521801 
L 254.986028 -145.761122 
L 255 -144 
z
" style="stroke: #a2d2ff"/>
    </defs>
    <g clip-path="url(#pa327d6a9e4)">
     <use xlink:href="#m7123753bfe" x="0" y="288" style="fill: #a2d2ff; stroke: #a2d2ff"/>
    </g>
   </g>
   <g id="line2d_1">
    <path d="M 144 144 
L 255 144 
" clip-path="url(#pa327d6a9e4)" style="fill: none; stroke: #000000; stroke-width: 1.5; stroke-linecap: square"/>
   </g>
   <g id="line2d_2">
    <path d="M 144 144 
L 144 33 
" clip-path="url(#pa327d6a9e4)" style="fill: none; stroke: #000000; stroke-width: 1.5; stroke-linecap: square"/>
   </g>
   <g id="line2d_3">
    <path d="M 255 144 
L 144 33 
" clip-path="url(#pa327d6a9e4)" style="fill: none; stroke: #000000; stroke-width: 1.5; stroke-linecap: square"/>
   </g>
   <g id="line2d_4">
    <defs>
     <path id="mfb7af672d6" d="M 0 3 
C 0.795609 3 1.55874 2.683901 2.12132 2.12132 
C 2.683901 1.55874 3 0.795609 3 0 
C 3 -0.795609 2.683901 -1.55874 2.12132 -2.12132 
C 1.55874 -2.683901 0.795609 -3 0 -3 
C -0.795609 -3 -1.55874 -2.683901 -2.12132 -2.12132 
C -2.683901 -1.55874 -3 -0.795609 -3 0 
C -3 0.795609 -2.683901 1.55874 -2.12132 2.12132 
C -1.55874 2.683901 -0.795609 3 0 3 
z
" style="stroke: #000000"/>
    </defs>
    <g clip-path="url(#pa327d6a9e4)">
     <use xlink:href="#mfb7af672d6" x="144" y="144" style="stroke: #000000"/>
    </g>
   </g>
   <g id="text_1">
    <!-- 90° -->
    <g transform="translate(146.2375 135.659375) scale(0.1 -0.1)">
     <defs>
      <path id="DejaVuSans-39" d="M 703 97 
L 703 672 
Q 941 559 1184 500 
Q 1428 441 1663 441 
Q 2288 441 2617 861 
Q 2947 1281 2994 2138 
Q 2813 1869 2534 1725 
Q 2256 1581 1919 1581 
Q 1219 1581 811 2004 
Q 403 2428 403 3163 
Q 403 3881 828 4315 
Q 1253 4750 1959 4750 
Q 2769 4750 3195 4129 
Q 3622 3509 3622 2328 
Q 3622 1225 3098 567 
Q 2575 -91 1691 -91 
Q 1453 -91 1209 -44 
Q 966 3 703 97 
z
M 1959 2075 
Q 2384 2075 2632 2365 
Q 2881 2656 2881 3163 
Q 2881 3666 2632 3958 
Q 2384 4250 1959 4250 
Q 1534 4250 1286 3958 
Q 1038 3666 1038 3163 
Q 1038 2656 1286 2365 
Q 1534 2075 1959 2075 
z
" transform="scale(0.015625)"/>
      <path id="DejaVuSans-30" d="M 2034 4250 
Q 1547 4250 1301 3770 
Q 1056 3291 1056 2328 
Q 1056 1369 1301 889 
Q 1547 409 2034 409 
Q 2525 409 2770 889 
Q 3016 1369 3016 2328 
Q 3016 3291 2770 3770 
Q 2525 4250 2034 4250 
z
M 2034 4750 
Q 2819 4750 3233 4129 
Q 3647 3509 3647 2328 
Q 3647 1150 3233 529 
Q 2819 -91 2034 -91 
Q 1250 -91 836 529 
Q 422 1150 422 2328 
Q 422 3509 836 4129 
Q 1250 4750 2034 4750 
z
" transform="scale(0.015625)"/>
      <path id="DejaVuSans-b0" d="M 1600 4347 
Q 1350 4347 1178 4173 
Q 1006 4000 1006 3750 
Q 1006 3503 1178 3333 
Q 1350 3163 1600 3163 
Q 1850 3163 2022 3333 
Q 2194 3503 2194 3750 
Q 2194 3997 2020 4172 
Q 1847 4347 1600 4347 
z
M 1600 4750 
Q 1800 4750 1984 4673 
Q 2169 4597 2303 4453 
Q 2447 4313 2519 4134 
Q 2591 3956 2591 3750 
Q 2591 3338 2302 3052 
Q 2013 2766 1594 2766 
Q 1172 2766 890 3047 
Q 609 3328 609 3750 
Q 609 4169 896 4459 
Q 1184 4750 1600 4750 
z
" transform="scale(0.015625)"/>
     </defs>
     <use xlink:href="#DejaVuSans-39"/>
     <use xlink:href="#DejaVuSans-30" x="63.623047"/>
     <use xlink:href="#DejaVuSans-b0" x="127.246094"/>
    </g>
   </g>
   <g id="text_2">
    <!-- 10 cm -->
    <g transform="translate(183.928906 162.698438) scale(0.1 -0.1)">
     <defs>
      <path id="DejaVuSans-31" d="M 794 531 
L 1825 531 
L 1825 4091 
L 703 3866 
L 703 4441 
L 1819 4666 
L 2450 4666 
L 2450 531 
L 3481 531 
L 3481 0 
L 794 0 
L 794 531 
z
" transform="scale(0.015625)"/>
      <path id="DejaVuSans-20" transform="scale(0.015625)"/>
      <path id="DejaVuSans-63" d="M 3122 3366 
L 3122 2828 
Q 2878 2963 2633 3030 
Q 2388 3097 2138 3097 
Q 1578 3097 1268 2742 
Q 959 2388 959 1747 
Q 959 1106 1268 751 
Q 1578 397 2138 397 
Q 2388 397 2633 464 
Q 2878 531 3122 666 
L 3122 134 
Q 2881 22 2623 -34 
Q 2366 -91 2075 -91 
Q 1284 -91 818 406 
Q 353 903 353 1747 
Q 353 2603 823 3093 
Q 1294 3584 2113 3584 
Q 2378 3584 2631 3529 
Q 2884 3475 3122 3366 
z
" transform="scale(0.015625)"/>
      <path id="DejaVuSans-6d" d="M 3328 2828 
Q 3544 3216 3844 3400 
Q 4144 3584 4550 3584 
Q 5097 3584 5394 3201 
Q 5691 2819 5691 2113 
L 5691 0 
L 5113 0 
L 5113 2094 
Q 5113 2597 4934 2840 
Q 4756 3084 4391 3084 
Q 3944 3084 3684 2787 
Q 3425 2491 3425 1978 
L 3425 0 
L 2847 0 
L 2847 2094 
Q 2847 2600 2669 2842 
Q 2491 3084 2119 3084 
Q 1678 3084 1418 2786 
Q 1159 2488 1159 1978 
L 1159 0 
L 581 0 
L 581 3500 
L 1159 3500 
L 1159 2956 
Q 1356 3278 1631 3431 
Q 1906 3584 2284 3584 
Q 2666 3584 2933 3390 
Q 3200 3197 3328 2828 
z
" transform="scale(0.015625)"/>
     </defs>
     <use xlink:href="#DejaVuSans-31"/>
     <use xlink:href="#DejaVuSans-30" x="63.623047"/>
     <use xlink:href="#DejaVuSans-20" x="127.246094"/>
     <use xlink:href="#DejaVuSans-63" x="159.033203"/>
     <use xlink:href="#DejaVuSans-6d" x="214.013672"/>
    </g>
   </g>
  </g>
 </g>
 <defs>
  <clipPath id="pa327d6a9e4">
   <rect x="10.8" y="10.8" width="266.4" height="266.4"/>
  </clipPath>
 </defs>
</svg>
