<?xml version="1.0" encoding="utf-8" standalone="no"?>
<!DOCTYPE svg PUBLIC "-//W3C//DTD SVG 1.1//EN"
  "http://www.w3.org/Graphics/SVG/1.1/DTD/svg11.dtd">
<svg xmlns:xlink="http://www.w3.org/1999/xlink" width="220.249531pt" height="290.026906pt" viewBox="0 0 220.249531 290.026906" xmlns="http://www.w3.org/2000/svg" version="1.1">
 <metadata>
  <rdf:RDF xmlns:dc="http://purl.org/dc/elements/1.1/" xmlns:cc="http://creativecommons.org/ns#" xmlns:rdf="http://www.w3.org/1999/02/22-rdf-syntax-ns#">
   <cc:Work>
    <dc:type rdf:resource="http://purl.org/dc/dcmitype/StillImage"/>
    <dc:date>2026-07-12T10:27:44.683995</dc:date>
    <dc:format>image/svg+xml</dc:format>
    <dc:creator>
     <cc:Agent>
      <dc:title>Matplotlib v3.9.0, https://matplotlib.org/</dc:title>
     </cc:Agent>
    </dc:creator>
   </cc:Work>
  </rdf:RDF>
 </metadata>
 <defs>
  <style type="text/css">*{stroke-linejoin: round; stroke-linecap: butt}</style>
 </defs>
 <g id="figure_1">
  <g id="patch_1">
   <path d="M 0 290.026906 
L 220.249531 290.026906 
L 220.249531 0 
L 0 0 
z
" style="fill: #ffffff"/>
  </g>
  <g id="axes_1">
   <g id="patch_2">
    <path d="M 64.040266 254.406281 
L 156.209266 254.406281 
L 156.209266 21.558281 
L 64.040266 21.558281 
z
" style="fill: #ffffff"/>
   </g>
   <g id="matplotlib.axis_1">
    <g id="xtick_1">
     <g id="line2d_1">
      <path d="M 93.146266 254.406281 
L 93.146266 21.558281 
" clip-path="url(#p40f0c3ce34)" style="fill: none; stroke: #e2e8f0; stroke-width: 0.7; stroke-linecap: square"/>
     </g>
     <g id="line2d_2">
      <defs>
       <path id="meec03f739f" d="M 0 0 
L 0 3.5 
" style="stroke: #000000; stroke-width: 0.8"/>
      </defs>
      <g>
       <use xlink:href="#meec03f739f" x="93.146266" y="254.406281" style="stroke: #000000; stroke-width: 0.8"/>
      </g>
     </g>
     <g id="text_1">
      <text style="font: 9px 'DejaVu Sans', 'Bitstream Vera Sans', 'Computer Modern Sans Serif', 'Lucida Grande', 'Verdana', 'Geneva', 'Lucid', 'Arial', 'Helvetica', 'Avant Garde', sans-serif; text-anchor: middle" x="93.146266" y="268.244875" transform="rotate(-0 93.146266 268.244875)">−2</text>
     </g>
    </g>
    <g id="xtick_2">
     <g id="line2d_3">
      <path d="M 141.656266 254.406281 
L 141.656266 21.558281 
" clip-path="url(#p40f0c3ce34)" style="fill: none; stroke: #e2e8f0; stroke-width: 0.7; stroke-linecap: square"/>
     </g>
     <g id="line2d_4">
      <g>
       <use xlink:href="#meec03f739f" x="141.656266" y="254.406281" style="stroke: #000000; stroke-width: 0.8"/>
      </g>
     </g>
     <g id="text_2">
      <text style="font: 9px 'DejaVu Sans', 'Bitstream Vera Sans', 'Computer Modern Sans Serif', 'Lucida Grande', 'Verdana', 'Geneva', 'Lucid', 'Arial', 'Helvetica', 'Avant Garde', sans-serif; text-anchor: middle" x="141.656266" y="268.244875" transform="rotate(-0 141.656266 268.244875)">−1</text>
     </g>
    </g>
    <g id="text_3">
     <!-- $x$ -->
     <g transform="translate(107.424766 280.955187)">
      <text>
       <tspan style="font: oblique 9px 'DejaVu Sans'" x="0" y="-0.078125">x</tspan>
      </text>
     </g>
    </g>
   </g>
   <g id="matplotlib.axis_2">
    <g id="ytick_1">
     <g id="line2d_5">
      <path d="M 64.040266 235.002281 
L 156.209266 235.002281 
" clip-path="url(#p40f0c3ce34)" style="fill: none; stroke: #e2e8f0; stroke-width: 0.7; stroke-linecap: square"/>
     </g>
     <g id="line2d_6">
      <defs>
       <path id="mac5a5c8dba" d="M 0 0 
L -3.5 0 
" style="stroke: #000000; stroke-width: 0.8"/>
      </defs>
      <g>
       <use xlink:href="#mac5a5c8dba" x="64.040266" y="235.002281" style="stroke: #000000; stroke-width: 0.8"/>
      </g>
     </g>
     <g id="text_4">
      <text style="font: 9px 'DejaVu Sans', 'Bitstream Vera Sans', 'Computer Modern Sans Serif', 'Lucida Grande', 'Verdana', 'Geneva', 'Lucid', 'Arial', 'Helvetica', 'Avant Garde', sans-serif; text-anchor: end" x="57.040266" y="238.421578" transform="rotate(-0 57.040266 238.421578)">−2</text>
     </g>
    </g>
    <g id="ytick_2">
     <g id="line2d_7">
      <path d="M 64.040266 186.492281 
L 156.209266 186.492281 
" clip-path="url(#p40f0c3ce34)" style="fill: none; stroke: #e2e8f0; stroke-width: 0.7; stroke-linecap: square"/>
     </g>
     <g id="line2d_8">
      <g>
       <use xlink:href="#mac5a5c8dba" x="64.040266" y="186.492281" style="stroke: #000000; stroke-width: 0.8"/>
      </g>
     </g>
     <g id="text_5">
      <text style="font: 9px 'DejaVu Sans', 'Bitstream Vera Sans', 'Computer Modern Sans Serif', 'Lucida Grande', 'Verdana', 'Geneva', 'Lucid', 'Arial', 'Helvetica', 'Avant Garde', sans-serif; text-anchor: end" x="57.040266" y="189.911578" transform="rotate(-0 57.040266 189.911578)">−1</text>
     </g>
    </g>
    <g id="ytick_3">
     <g id="line2d_9">
      <path d="M 64.040266 137.982281 
L 156.209266 137.982281 
" clip-path="url(#p40f0c3ce34)" style="fill: none; stroke: #e2e8f0; stroke-width: 0.7; stroke-linecap: square"/>
     </g>
     <g id="line2d_10">
      <g>
       <use xlink:href="#mac5a5c8dba" x="64.040266" y="137.982281" style="stroke: #000000; stroke-width: 0.8"/>
      </g>
     </g>
     <g id="text_6">
      <text style="font: 9px 'DejaVu Sans', 'Bitstream Vera Sans', 'Computer Modern Sans Serif', 'Lucida Grande', 'Verdana', 'Geneva', 'Lucid', 'Arial', 'Helvetica', 'Avant Garde', sans-serif; text-anchor: end" x="57.040266" y="141.401578" transform="rotate(-0 57.040266 141.401578)">0</text>
     </g>
    </g>
    <g id="ytick_4">
     <g id="line2d_11">
      <path d="M 64.040266 89.472281 
L 156.209266 89.472281 
" clip-path="url(#p40f0c3ce34)" style="fill: none; stroke: #e2e8f0; stroke-width: 0.7; stroke-linecap: square"/>
     </g>
     <g id="line2d_12">
      <g>
       <use xlink:href="#mac5a5c8dba" x="64.040266" y="89.472281" style="stroke: #000000; stroke-width: 0.8"/>
      </g>
     </g>
     <g id="text_7">
      <text style="font: 9px 'DejaVu Sans', 'Bitstream Vera Sans', 'Computer Modern Sans Serif', 'Lucida Grande', 'Verdana', 'Geneva', 'Lucid', 'Arial', 'Helvetica', 'Avant Garde', sans-serif; text-anchor: end" x="57.040266" y="92.891578" transform="rotate(-0 57.040266 92.891578)">1</text>
     </g>
    </g>
    <g id="ytick_5">
     <g id="line2d_13">
      <path d="M 64.040266 40.962281 
L 156.209266 40.962281 
" clip-path="url(#p40f0c3ce34)" style="fill: none; stroke: #e2e8f0; stroke-width: 0.7; stroke-linecap: square"/>
     </g>
     <g id="line2d_14">
      <g>
       <use xlink:href="#mac5a5c8dba" x="64.040266" y="40.962281" style="stroke: #000000; stroke-width: 0.8"/>
      </g>
     </g>
     <g id="text_8">
      <text style="font: 9px 'DejaVu Sans', 'Bitstream Vera Sans', 'Computer Modern Sans Serif', 'Lucida Grande', 'Verdana', 'Geneva', 'Lucid', 'Arial', 'Helvetica', 'Avant Garde', sans-serif; text-anchor: end" x="57.040266" y="44.381578" transform="rotate(-0 57.040266 44.381578)">2</text>
     </g>
    </g>
    <g id="text_9">
     <!-- $y$ -->
     <g transform="translate(31.072297 136.092281)">
      <text>
       <tspan style="font: oblique 9px 'DejaVu Sans'" x="0" y="-0.078125">y</tspan>
      </text>
     </g>
    </g>
   </g>
   <g id="line2d_15">
    <path d="M 64.040266 137.982281 
L 156.209266 137.982281 
" clip-path="url(#p40f0c3ce34)" style="fill: none; stroke: #94a3b8; stroke-linecap: square"/>
   </g>
   <g id="line2d_16">
    <path d="M 190.166266 254.406281 
L 190.166266 21.558281 
" clip-path="url(#p40f0c3ce34)" style="fill: none; stroke: #94a3b8; stroke-linecap: square"/>
   </g>
   <g id="line2d_17">
    <path d="M 87.244388 228.755034 
L 97.215202 217.270868 
L 105.161728 207.785944 
L 112.024479 199.243352 
L 117.600301 191.950782 
L 122.186185 185.606553 
L 126.221676 179.643899 
L 129.551276 174.327251 
L 132.307525 169.516608 
L 134.588378 165.105729 
L 136.467229 161.011967 
L 137.999532 157.169464 
L 139.227288 153.52446 
L 140.18212 150.031959 
L 140.887403 146.653279 
L 141.359733 143.3542 
L 141.60991 140.103491 
L 141.643554 136.871685 
L 141.461415 133.629996 
L 141.059415 130.349282 
L 140.428424 126.998986 
L 139.553745 123.545967 
L 138.414252 119.953115 
L 136.981093 116.177637 
L 135.215789 112.168821 
L 133.067495 107.865019 
L 130.469015 103.189442 
L 127.544978 98.381706 
L 124.048886 93.056924 
L 119.849193 87.077757 
L 114.766114 80.259125 
L 109.004464 72.91295 
L 101.965299 64.319601 
L 93.921083 54.856382 
L 87.244388 47.209528 
L 87.244388 47.209528 
" clip-path="url(#p40f0c3ce34)" style="fill: none; stroke: #7c3aed; stroke-width: 2.4; stroke-linecap: square"/>
   </g>
   <g id="patch_3">
    <path d="M 64.040266 254.406281 
L 64.040266 21.558281 
" style="fill: none; stroke: #000000; stroke-width: 0.8; stroke-linejoin: miter; stroke-linecap: square"/>
   </g>
   <g id="patch_4">
    <path d="M 156.209266 254.406281 
L 156.209266 21.558281 
" style="fill: none; stroke: #000000; stroke-width: 0.8; stroke-linejoin: miter; stroke-linecap: square"/>
   </g>
   <g id="patch_5">
    <path d="M 64.040266 254.406281 
L 156.209266 254.406281 
" style="fill: none; stroke: #000000; stroke-width: 0.8; stroke-linejoin: miter; stroke-linecap: square"/>
   </g>
   <g id="patch_6">
    <path d="M 64.040266 21.558281 
L 156.209266 21.558281 
" style="fill: none; stroke: #000000; stroke-width: 0.8; stroke-linejoin: miter; stroke-linecap: square"/>
   </g>
   <g id="text_10">
    <text style="fill: #dc2626; font: 700 9px 'DejaVu Sans', 'Bitstream Vera Sans', 'Computer Modern Sans Serif', 'Lucida Grande', 'Verdana', 'Geneva', 'Lucid', 'Arial', 'Helvetica', 'Avant Garde', sans-serif; text-anchor: start" x="93.065588" y="222.933834" transform="rotate(-0 93.065588 222.933834)">start</text>
   </g>
   <g id="text_11">
    <text style="font: 11px 'DejaVu Sans', 'Bitstream Vera Sans', 'Computer Modern Sans Serif', 'Lucida Grande', 'Verdana', 'Geneva', 'Lucid', 'Arial', 'Helvetica', 'Avant Garde', sans-serif; text-anchor: middle" x="110.124766" y="15.558281" transform="rotate(-0 110.124766 15.558281)">hyperbola left branch: upper to lower</text>
   </g>
   <g id="patch_7">
    <path d="M 126.448869 179.294344 
Q 126.672023 178.948474 125.804127 180.293641 
" clip-path="url(#p40f0c3ce34)" style="fill: none; stroke: #111827; stroke-width: 1.8; stroke-linecap: round"/>
    <path d="M 119.260563 184.16427 
L 125.804127 180.293641 
L 124.974491 187.85087 
z
" clip-path="url(#p40f0c3ce34)" style="fill: #111827; stroke: #111827; stroke-width: 1.8; stroke-linecap: round"/>
   </g>
   <g id="patch_8">
    <path d="M 141.656161 137.881335 
Q 141.6549 137.679435 141.666203 139.489957 
" clip-path="url(#p40f0c3ce34)" style="fill: none; stroke: #111827; stroke-width: 1.8; stroke-linecap: round"/>
    <path d="M 138.308719 146.311049 
L 141.666203 139.489957 
L 145.108587 146.268599 
z
" clip-path="url(#p40f0c3ce34)" style="fill: #111827; stroke: #111827; stroke-width: 1.8; stroke-linecap: round"/>
   </g>
   <g id="patch_9">
    <path d="M 126.221676 96.320663 
Q 125.990352 95.967327 126.861335 97.297713 
" clip-path="url(#p40f0c3ce34)" style="fill: none; stroke: #111827; stroke-width: 1.8; stroke-linecap: round"/>
    <path d="M 127.741365 104.849239 
L 126.861335 97.297713 
L 133.430574 101.124604 
z
" clip-path="url(#p40f0c3ce34)" style="fill: #111827; stroke: #111827; stroke-width: 1.8; stroke-linecap: round"/>
   </g>
   <g id="PathCollection_1">
    <defs>
     <path id="m9f3b13945d" d="M 0 3.937004 
C 1.044106 3.937004 2.045588 3.522176 2.783882 2.783882 
C 3.522176 2.045588 3.937004 1.044106 3.937004 0 
C 3.937004 -1.044106 3.522176 -2.045588 2.783882 -2.783882 
C 2.045588 -3.522176 1.044106 -3.937004 0 -3.937004 
C -1.044106 -3.937004 -2.045588 -3.522176 -2.783882 -2.783882 
C -3.522176 -2.045588 -3.937004 -1.044106 -3.937004 0 
C -3.937004 1.044106 -3.522176 2.045588 -2.783882 2.783882 
C -2.045588 3.522176 -1.044106 3.937004 0 3.937004 
z
" style="stroke: #dc2626"/>
    </defs>
    <g clip-path="url(#p40f0c3ce34)">
     <use xlink:href="#m9f3b13945d" x="87.244388" y="228.755034" style="fill: #dc2626; stroke: #dc2626"/>
    </g>
   </g>
  </g>
 </g>
 <defs>
  <clipPath id="p40f0c3ce34">
   <rect x="64.040266" y="21.558281" width="92.169" height="232.848"/>
  </clipPath>
 </defs>
</svg>
