<?xml version="1.0" encoding="utf-8" standalone="no"?>
<!DOCTYPE svg PUBLIC "-//W3C//DTD SVG 1.1//EN"
  "http://www.w3.org/Graphics/SVG/1.1/DTD/svg11.dtd">
<svg xmlns:xlink="http://www.w3.org/1999/xlink" width="252.02126pt" height="237.150244pt" viewBox="0 0 252.02126 237.150244" xmlns="http://www.w3.org/2000/svg" version="1.1">
 <metadata>
  <rdf:RDF xmlns:dc="http://purl.org/dc/elements/1.1/" xmlns:cc="http://creativecommons.org/ns#" xmlns:rdf="http://www.w3.org/1999/02/22-rdf-syntax-ns#">
   <cc:Work>
    <dc:type rdf:resource="http://purl.org/dc/dcmitype/StillImage"/>
    <dc:date>2026-07-12T10:28:34.357280</dc:date>
    <dc:format>image/svg+xml</dc:format>
    <dc:creator>
     <cc:Agent>
      <dc:title>Matplotlib v3.9.0, https://matplotlib.org/</dc:title>
     </cc:Agent>
    </dc:creator>
   </cc:Work>
  </rdf:RDF>
 </metadata>
 <defs>
  <style type="text/css">*{stroke-linejoin: round; stroke-linecap: butt}</style>
 </defs>
 <g id="figure_1">
  <g id="patch_1">
   <path d="M 0 237.150244 
L 252.02126 237.150244 
L 252.02126 0 
L 0 0 
z
" style="fill: #ffffff"/>
  </g>
  <g id="axes_1">
   <g id="patch_2">
    <path d="M 46.754531 201.529619 
L 240.794531 201.529619 
L 240.794531 7.489619 
L 46.754531 7.489619 
z
" style="fill: #ffffff"/>
   </g>
   <g id="matplotlib.axis_1">
    <g id="xtick_1">
     <g id="line2d_1">
      <path d="M 49.884209 201.529619 
L 49.884209 7.489619 
" clip-path="url(#p46c2f92791)" style="fill: none; stroke: #e2e8f0; stroke-width: 0.7; stroke-linecap: square"/>
     </g>
     <g id="line2d_2">
      <defs>
       <path id="m925220e2d7" d="M 0 0 
L 0 3.5 
" style="stroke: #000000; stroke-width: 0.8"/>
      </defs>
      <g>
       <use xlink:href="#m925220e2d7" x="49.884209" y="201.529619" style="stroke: #000000; stroke-width: 0.8"/>
      </g>
     </g>
     <g id="text_1">
      <text style="font: 9px 'DejaVu Sans', 'Bitstream Vera Sans', 'Computer Modern Sans Serif', 'Lucida Grande', 'Verdana', 'Geneva', 'Lucid', 'Arial', 'Helvetica', 'Avant Garde', sans-serif; text-anchor: middle" x="49.884209" y="215.368213" transform="rotate(-0 49.884209 215.368213)">−1.5</text>
     </g>
    </g>
    <g id="xtick_2">
     <g id="line2d_3">
      <path d="M 81.180983 201.529619 
L 81.180983 7.489619 
" clip-path="url(#p46c2f92791)" style="fill: none; stroke: #e2e8f0; stroke-width: 0.7; stroke-linecap: square"/>
     </g>
     <g id="line2d_4">
      <g>
       <use xlink:href="#m925220e2d7" x="81.180983" y="201.529619" style="stroke: #000000; stroke-width: 0.8"/>
      </g>
     </g>
     <g id="text_2">
      <text style="font: 9px 'DejaVu Sans', 'Bitstream Vera Sans', 'Computer Modern Sans Serif', 'Lucida Grande', 'Verdana', 'Geneva', 'Lucid', 'Arial', 'Helvetica', 'Avant Garde', sans-serif; text-anchor: middle" x="81.180983" y="215.368213" transform="rotate(-0 81.180983 215.368213)">−1.0</text>
     </g>
    </g>
    <g id="xtick_3">
     <g id="line2d_5">
      <path d="M 112.477757 201.529619 
L 112.477757 7.489619 
" clip-path="url(#p46c2f92791)" style="fill: none; stroke: #e2e8f0; stroke-width: 0.7; stroke-linecap: square"/>
     </g>
     <g id="line2d_6">
      <g>
       <use xlink:href="#m925220e2d7" x="112.477757" y="201.529619" style="stroke: #000000; stroke-width: 0.8"/>
      </g>
     </g>
     <g id="text_3">
      <text style="font: 9px 'DejaVu Sans', 'Bitstream Vera Sans', 'Computer Modern Sans Serif', 'Lucida Grande', 'Verdana', 'Geneva', 'Lucid', 'Arial', 'Helvetica', 'Avant Garde', sans-serif; text-anchor: middle" x="112.477757" y="215.368213" transform="rotate(-0 112.477757 215.368213)">−0.5</text>
     </g>
    </g>
    <g id="xtick_4">
     <g id="line2d_7">
      <path d="M 143.774531 201.529619 
L 143.774531 7.489619 
" clip-path="url(#p46c2f92791)" style="fill: none; stroke: #e2e8f0; stroke-width: 0.7; stroke-linecap: square"/>
     </g>
     <g id="line2d_8">
      <g>
       <use xlink:href="#m925220e2d7" x="143.774531" y="201.529619" style="stroke: #000000; stroke-width: 0.8"/>
      </g>
     </g>
     <g id="text_4">
      <text style="font: 9px 'DejaVu Sans', 'Bitstream Vera Sans', 'Computer Modern Sans Serif', 'Lucida Grande', 'Verdana', 'Geneva', 'Lucid', 'Arial', 'Helvetica', 'Avant Garde', sans-serif; text-anchor: middle" x="143.774531" y="215.368213" transform="rotate(-0 143.774531 215.368213)">0.0</text>
     </g>
    </g>
    <g id="xtick_5">
     <g id="line2d_9">
      <path d="M 175.071305 201.529619 
L 175.071305 7.489619 
" clip-path="url(#p46c2f92791)" style="fill: none; stroke: #e2e8f0; stroke-width: 0.7; stroke-linecap: square"/>
     </g>
     <g id="line2d_10">
      <g>
       <use xlink:href="#m925220e2d7" x="175.071305" y="201.529619" style="stroke: #000000; stroke-width: 0.8"/>
      </g>
     </g>
     <g id="text_5">
      <text style="font: 9px 'DejaVu Sans', 'Bitstream Vera Sans', 'Computer Modern Sans Serif', 'Lucida Grande', 'Verdana', 'Geneva', 'Lucid', 'Arial', 'Helvetica', 'Avant Garde', sans-serif; text-anchor: middle" x="175.071305" y="215.368213" transform="rotate(-0 175.071305 215.368213)">0.5</text>
     </g>
    </g>
    <g id="xtick_6">
     <g id="line2d_11">
      <path d="M 206.36808 201.529619 
L 206.36808 7.489619 
" clip-path="url(#p46c2f92791)" style="fill: none; stroke: #e2e8f0; stroke-width: 0.7; stroke-linecap: square"/>
     </g>
     <g id="line2d_12">
      <g>
       <use xlink:href="#m925220e2d7" x="206.36808" y="201.529619" style="stroke: #000000; stroke-width: 0.8"/>
      </g>
     </g>
     <g id="text_6">
      <text style="font: 9px 'DejaVu Sans', 'Bitstream Vera Sans', 'Computer Modern Sans Serif', 'Lucida Grande', 'Verdana', 'Geneva', 'Lucid', 'Arial', 'Helvetica', 'Avant Garde', sans-serif; text-anchor: middle" x="206.36808" y="215.368213" transform="rotate(-0 206.36808 215.368213)">1.0</text>
     </g>
    </g>
    <g id="xtick_7">
     <g id="line2d_13">
      <path d="M 237.664854 201.529619 
L 237.664854 7.489619 
" clip-path="url(#p46c2f92791)" style="fill: none; stroke: #e2e8f0; stroke-width: 0.7; stroke-linecap: square"/>
     </g>
     <g id="line2d_14">
      <g>
       <use xlink:href="#m925220e2d7" x="237.664854" y="201.529619" style="stroke: #000000; stroke-width: 0.8"/>
      </g>
     </g>
     <g id="text_7">
      <text style="font: 9px 'DejaVu Sans', 'Bitstream Vera Sans', 'Computer Modern Sans Serif', 'Lucida Grande', 'Verdana', 'Geneva', 'Lucid', 'Arial', 'Helvetica', 'Avant Garde', sans-serif; text-anchor: middle" x="237.664854" y="215.368213" transform="rotate(-0 237.664854 215.368213)">1.5</text>
     </g>
    </g>
    <g id="text_8">
     <!-- $x$ -->
     <g transform="translate(141.074531 228.078526)">
      <text>
       <tspan style="font: oblique 9px 'DejaVu Sans'" x="0" y="-0.078125">x</tspan>
      </text>
     </g>
    </g>
   </g>
   <g id="matplotlib.axis_2">
    <g id="ytick_1">
     <g id="line2d_15">
      <path d="M 46.754531 198.399942 
L 240.794531 198.399942 
" clip-path="url(#p46c2f92791)" style="fill: none; stroke: #e2e8f0; stroke-width: 0.7; stroke-linecap: square"/>
     </g>
     <g id="line2d_16">
      <defs>
       <path id="m10d1ea72e6" d="M 0 0 
L -3.5 0 
" style="stroke: #000000; stroke-width: 0.8"/>
      </defs>
      <g>
       <use xlink:href="#m10d1ea72e6" x="46.754531" y="198.399942" style="stroke: #000000; stroke-width: 0.8"/>
      </g>
     </g>
     <g id="text_9">
      <text style="font: 9px 'DejaVu Sans', 'Bitstream Vera Sans', 'Computer Modern Sans Serif', 'Lucida Grande', 'Verdana', 'Geneva', 'Lucid', 'Arial', 'Helvetica', 'Avant Garde', sans-serif; text-anchor: end" x="39.754531" y="201.819239" transform="rotate(-0 39.754531 201.819239)">−1.5</text>
     </g>
    </g>
    <g id="ytick_2">
     <g id="line2d_17">
      <path d="M 46.754531 167.103168 
L 240.794531 167.103168 
" clip-path="url(#p46c2f92791)" style="fill: none; stroke: #e2e8f0; stroke-width: 0.7; stroke-linecap: square"/>
     </g>
     <g id="line2d_18">
      <g>
       <use xlink:href="#m10d1ea72e6" x="46.754531" y="167.103168" style="stroke: #000000; stroke-width: 0.8"/>
      </g>
     </g>
     <g id="text_10">
      <text style="font: 9px 'DejaVu Sans', 'Bitstream Vera Sans', 'Computer Modern Sans Serif', 'Lucida Grande', 'Verdana', 'Geneva', 'Lucid', 'Arial', 'Helvetica', 'Avant Garde', sans-serif; text-anchor: end" x="39.754531" y="170.522465" transform="rotate(-0 39.754531 170.522465)">−1.0</text>
     </g>
    </g>
    <g id="ytick_3">
     <g id="line2d_19">
      <path d="M 46.754531 135.806394 
L 240.794531 135.806394 
" clip-path="url(#p46c2f92791)" style="fill: none; stroke: #e2e8f0; stroke-width: 0.7; stroke-linecap: square"/>
     </g>
     <g id="line2d_20">
      <g>
       <use xlink:href="#m10d1ea72e6" x="46.754531" y="135.806394" style="stroke: #000000; stroke-width: 0.8"/>
      </g>
     </g>
     <g id="text_11">
      <text style="font: 9px 'DejaVu Sans', 'Bitstream Vera Sans', 'Computer Modern Sans Serif', 'Lucida Grande', 'Verdana', 'Geneva', 'Lucid', 'Arial', 'Helvetica', 'Avant Garde', sans-serif; text-anchor: end" x="39.754531" y="139.225691" transform="rotate(-0 39.754531 139.225691)">−0.5</text>
     </g>
    </g>
    <g id="ytick_4">
     <g id="line2d_21">
      <path d="M 46.754531 104.509619 
L 240.794531 104.509619 
" clip-path="url(#p46c2f92791)" style="fill: none; stroke: #e2e8f0; stroke-width: 0.7; stroke-linecap: square"/>
     </g>
     <g id="line2d_22">
      <g>
       <use xlink:href="#m10d1ea72e6" x="46.754531" y="104.509619" style="stroke: #000000; stroke-width: 0.8"/>
      </g>
     </g>
     <g id="text_12">
      <text style="font: 9px 'DejaVu Sans', 'Bitstream Vera Sans', 'Computer Modern Sans Serif', 'Lucida Grande', 'Verdana', 'Geneva', 'Lucid', 'Arial', 'Helvetica', 'Avant Garde', sans-serif; text-anchor: end" x="39.754531" y="107.928916" transform="rotate(-0 39.754531 107.928916)">0.0</text>
     </g>
    </g>
    <g id="ytick_5">
     <g id="line2d_23">
      <path d="M 46.754531 73.212845 
L 240.794531 73.212845 
" clip-path="url(#p46c2f92791)" style="fill: none; stroke: #e2e8f0; stroke-width: 0.7; stroke-linecap: square"/>
     </g>
     <g id="line2d_24">
      <g>
       <use xlink:href="#m10d1ea72e6" x="46.754531" y="73.212845" style="stroke: #000000; stroke-width: 0.8"/>
      </g>
     </g>
     <g id="text_13">
      <text style="font: 9px 'DejaVu Sans', 'Bitstream Vera Sans', 'Computer Modern Sans Serif', 'Lucida Grande', 'Verdana', 'Geneva', 'Lucid', 'Arial', 'Helvetica', 'Avant Garde', sans-serif; text-anchor: end" x="39.754531" y="76.632142" transform="rotate(-0 39.754531 76.632142)">0.5</text>
     </g>
    </g>
    <g id="ytick_6">
     <g id="line2d_25">
      <path d="M 46.754531 41.916071 
L 240.794531 41.916071 
" clip-path="url(#p46c2f92791)" style="fill: none; stroke: #e2e8f0; stroke-width: 0.7; stroke-linecap: square"/>
     </g>
     <g id="line2d_26">
      <g>
       <use xlink:href="#m10d1ea72e6" x="46.754531" y="41.916071" style="stroke: #000000; stroke-width: 0.8"/>
      </g>
     </g>
     <g id="text_14">
      <text style="font: 9px 'DejaVu Sans', 'Bitstream Vera Sans', 'Computer Modern Sans Serif', 'Lucida Grande', 'Verdana', 'Geneva', 'Lucid', 'Arial', 'Helvetica', 'Avant Garde', sans-serif; text-anchor: end" x="39.754531" y="45.335368" transform="rotate(-0 39.754531 45.335368)">1.0</text>
     </g>
    </g>
    <g id="ytick_7">
     <g id="line2d_27">
      <path d="M 46.754531 10.619297 
L 240.794531 10.619297 
" clip-path="url(#p46c2f92791)" style="fill: none; stroke: #e2e8f0; stroke-width: 0.7; stroke-linecap: square"/>
     </g>
     <g id="line2d_28">
      <g>
       <use xlink:href="#m10d1ea72e6" x="46.754531" y="10.619297" style="stroke: #000000; stroke-width: 0.8"/>
      </g>
     </g>
     <g id="text_15">
      <text style="font: 9px 'DejaVu Sans', 'Bitstream Vera Sans', 'Computer Modern Sans Serif', 'Lucida Grande', 'Verdana', 'Geneva', 'Lucid', 'Arial', 'Helvetica', 'Avant Garde', sans-serif; text-anchor: end" x="39.754531" y="14.038594" transform="rotate(-0 39.754531 14.038594)">1.5</text>
     </g>
    </g>
    <g id="text_16">
     <!-- $y$ -->
     <g transform="translate(7.2 102.619619)">
      <text>
       <tspan style="font: oblique 9px 'DejaVu Sans'" x="0" y="-0.078125">y</tspan>
      </text>
     </g>
    </g>
   </g>
   <g id="line2d_29">
    <path d="M 46.754531 104.509619 
L 240.794531 104.509619 
" clip-path="url(#p46c2f92791)" style="fill: none; stroke: #94a3b8; stroke-linecap: square"/>
   </g>
   <g id="line2d_30">
    <path d="M 143.774531 201.529619 
L 143.774531 7.489619 
" clip-path="url(#p46c2f92791)" style="fill: none; stroke: #94a3b8; stroke-linecap: square"/>
   </g>
   <g id="line2d_31">
    <path d="M 143.774531 167.103168 
L 139.987954 166.988529 
L 136.215247 166.645032 
L 132.470229 166.073936 
L 128.766618 165.277332 
L 125.117981 164.258138 
L 121.537681 163.020087 
L 118.038835 161.567715 
L 114.634258 159.906341 
L 111.33642 158.042051 
L 108.157402 155.981674 
L 105.108848 153.732757 
L 102.201925 151.303537 
L 99.447281 148.702913 
L 96.855006 145.94041 
L 94.434595 143.026148 
L 92.194915 139.970802 
L 90.144168 136.785562 
L 88.289868 133.482097 
L 86.638806 130.072507 
L 85.19703 126.569281 
L 83.969821 122.985251 
L 82.961675 119.333546 
L 82.176284 115.627541 
L 81.616524 111.880812 
L 81.284448 108.107082 
L 81.18127 104.320175 
L 81.307368 100.533962 
L 81.662282 96.762312 
L 82.24471 93.019039 
L 83.05252 89.317857 
L 84.082752 85.672321 
L 85.331633 82.095785 
L 86.794588 78.60135 
L 88.466259 75.201817 
L 90.340521 71.909637 
L 92.410511 68.736869 
L 94.668644 65.695136 
L 97.106651 62.795578 
L 99.7156 60.048817 
L 102.485936 57.464915 
L 105.40751 55.053336 
L 108.469621 52.822913 
L 111.661053 50.781817 
L 114.970115 48.937523 
L 118.384687 47.296788 
L 121.89226 45.865621 
L 125.479988 44.649265 
L 129.134728 43.652176 
L 132.843092 42.878005 
L 136.591499 42.329588 
L 140.366216 42.008934 
L 144.153418 41.917218 
L 147.939232 42.054775 
L 151.709791 42.421102 
L 155.451284 43.014857 
L 159.150004 43.833865 
L 162.792406 44.875126 
L 166.365145 46.134826 
L 169.855136 47.608351 
L 173.249594 49.290303 
L 176.536087 51.174521 
L 179.702575 53.254103 
L 182.73746 55.521432 
L 185.629626 57.968204 
L 188.368477 60.585455 
L 190.943983 63.363598 
L 193.346709 66.292457 
L 195.567854 69.361305 
L 197.599282 72.5589 
L 199.433552 75.873528 
L 201.063945 79.29305 
L 202.484489 82.804939 
L 203.689981 86.396332 
L 204.676005 90.054073 
L 205.438949 93.764764 
L 205.976018 97.514812 
L 206.285246 101.290483 
L 206.365499 105.077945 
L 206.216485 108.863326 
L 205.838747 112.632759 
L 205.233671 116.372437 
L 204.403472 120.068662 
L 203.351192 123.707895 
L 202.080685 127.276806 
L 200.596604 130.762321 
L 198.904387 134.151673 
L 197.01023 137.432448 
L 194.921074 140.592628 
L 192.64457 143.620637 
L 190.189056 146.505383 
L 187.563528 149.236301 
L 184.777602 151.803387 
L 181.841484 154.197238 
L 178.765928 156.409084 
L 175.5622 158.430825 
L 172.242035 160.255055 
L 168.817594 161.875091 
L 165.301422 163.284999 
L 161.706397 164.479616 
L 158.045689 165.454565 
L 154.332706 166.206275 
L 150.581049 166.731992 
L 146.804459 167.029791 
L 143.774531 167.103168 
L 143.774531 167.103168 
" clip-path="url(#p46c2f92791)" style="fill: none; stroke: #0f766e; stroke-width: 2.4; stroke-linecap: square"/>
   </g>
   <g id="patch_3">
    <path d="M 46.754531 201.529619 
L 46.754531 7.489619 
" style="fill: none; stroke: #000000; stroke-width: 0.8; stroke-linejoin: miter; stroke-linecap: square"/>
   </g>
   <g id="patch_4">
    <path d="M 240.794531 201.529619 
L 240.794531 7.489619 
" style="fill: none; stroke: #000000; stroke-width: 0.8; stroke-linejoin: miter; stroke-linecap: square"/>
   </g>
   <g id="patch_5">
    <path d="M 46.754531 201.529619 
L 240.794531 201.529619 
" style="fill: none; stroke: #000000; stroke-width: 0.8; stroke-linejoin: miter; stroke-linecap: square"/>
   </g>
   <g id="patch_6">
    <path d="M 46.754531 7.489619 
L 240.794531 7.489619 
" style="fill: none; stroke: #000000; stroke-width: 0.8; stroke-linejoin: miter; stroke-linecap: square"/>
   </g>
   <g id="patch_7">
    <path d="M 102.201925 151.303537 
Q 101.64157 150.793436 102.569408 151.638063 
" clip-path="url(#p46c2f92791)" style="fill: none; stroke: #111827; stroke-width: 1.8; stroke-linecap: round"/>
    <path d="M 105.470316 159.14704 
L 102.569408 151.638063 
L 110.317134 153.822722 
z
" clip-path="url(#p46c2f92791)" style="fill: #111827; stroke: #111827; stroke-width: 1.8; stroke-linecap: round"/>
   </g>
   <g id="patch_8">
    <path d="M 97.106651 62.795578 
Q 97.618445 62.23677 96.771014 63.162047 
" clip-path="url(#p46c2f92791)" style="fill: none; stroke: #111827; stroke-width: 1.8; stroke-linecap: round"/>
    <path d="M 89.253292 66.040215 
L 96.771014 63.162047 
L 94.562916 70.903125 
z
" clip-path="url(#p46c2f92791)" style="fill: #111827; stroke: #111827; stroke-width: 1.8; stroke-linecap: round"/>
   </g>
   <g id="patch_9">
    <path d="M 190.943983 63.363598 
Q 191.435149 63.940621 190.621875 62.985184 
" clip-path="url(#p46c2f92791)" style="fill: none; stroke: #111827; stroke-width: 1.8; stroke-linecap: round"/>
    <path d="M 188.696319 55.169031 
L 190.621875 62.985184 
L 183.213619 59.835937 
z
" clip-path="url(#p46c2f92791)" style="fill: #111827; stroke: #111827; stroke-width: 1.8; stroke-linecap: round"/>
   </g>
   <g id="PathCollection_1">
    <defs>
     <path id="m7bc65676ba" d="M 0 3.937004 
C 1.044106 3.937004 2.045588 3.522176 2.783882 2.783882 
C 3.522176 2.045588 3.937004 1.044106 3.937004 0 
C 3.937004 -1.044106 3.522176 -2.045588 2.783882 -2.783882 
C 2.045588 -3.522176 1.044106 -3.937004 0 -3.937004 
C -1.044106 -3.937004 -2.045588 -3.522176 -2.783882 -2.783882 
C -3.522176 -2.045588 -3.937004 -1.044106 -3.937004 0 
C -3.937004 1.044106 -3.522176 2.045588 -2.783882 2.783882 
C -2.045588 3.522176 -1.044106 3.937004 0 3.937004 
z
" style="stroke: #dc2626"/>
    </defs>
    <g clip-path="url(#p46c2f92791)">
     <use xlink:href="#m7bc65676ba" x="143.774531" y="167.103168" style="fill: #dc2626; stroke: #dc2626"/>
    </g>
   </g>
  </g>
 </g>
 <defs>
  <clipPath id="p46c2f92791">
   <rect x="46.754531" y="7.489619" width="194.04" height="194.04"/>
  </clipPath>
 </defs>
</svg>
